<svg width="128" height="44" viewBox="0 0 128 44" fill="none" xmlns="http://www.w3.org/2000/svg">
<path d="M16.9521 0.172943C19.9618 -0.0474457 23.0053 -0.0780367 26.0127 0.20517C29.2105 0.506478 31.1123 2.8063 31.1562 6.07333C31.1717 7.22505 31.136 8.37746 31.1436 9.52939C31.156 11.4266 31.891 12.1661 33.7373 12.1612C34.8752 12.1581 36.0136 12.1381 37.1514 12.1485C40.6044 12.1801 43.0533 14.6381 43.082 18.1183C43.1034 20.7186 43.1054 23.3196 43.0938 25.92C43.0805 28.8828 41.0653 31.2174 38.1719 31.627C37.1056 31.778 36.0088 31.8375 34.9658 31.6173C33.3699 31.2802 34.471 29.9397 34.209 29.0929C34.0097 28.4498 34.4381 28.1418 35.0908 28.1554C35.8383 28.1709 36.5867 28.1734 37.334 28.1524C38.7434 28.1129 39.6172 27.3174 39.6436 25.8917C39.6927 23.2263 39.6986 20.5578 39.6426 17.8927C39.611 16.399 38.658 15.5612 37.1543 15.6026C35.6931 15.6429 34.2379 15.7537 32.7734 15.5968C29.9981 15.2993 27.8503 13.0341 27.7607 10.2042C27.7201 8.92187 27.759 7.63715 27.749 6.35361C27.7341 4.42391 26.8336 3.47918 24.9141 3.56357C22.4757 3.6709 20.0381 3.62483 17.6006 3.65732C16.1078 3.67724 15.383 4.39933 15.375 5.91318C15.3542 9.86297 15.3491 13.813 15.3643 17.7628C15.3705 19.3859 16.1706 20.1911 17.7764 20.2032C20.3123 20.2224 22.8487 20.1973 25.3848 20.1993C28.7578 20.2021 31.0773 22.405 31.1357 25.8194C31.2067 29.9656 31.2067 34.1144 31.1484 38.2608C31.1059 41.2922 28.6162 43.6929 25.4873 43.7686C22.7901 43.8339 20.0892 43.8336 17.3916 43.7823C14.8153 43.7332 12.8021 42.0018 12.0615 39.2667C11.8712 37.5083 11.9859 35.8285 11.9639 34.1515C11.9423 32.5122 11.1943 31.728 9.58398 31.6964C7.99333 31.6652 6.40054 31.8162 4.81152 31.5987C2.12389 31.2309 0.0731249 28.9429 0.0458984 26.1954C0.0193476 23.4964 0.141202 20.7912 0.00683594 18.0987C-0.141422 15.1279 2.09047 12.4553 5.23828 12.2101C6.17618 12.1371 7.12307 12.1704 8.06543 12.1583C8.61044 12.1514 8.93195 12.3887 8.91895 12.9796C8.91751 13.0453 8.92399 13.1111 8.92383 13.1768C8.91696 16.006 9.25138 15.6759 6.53418 15.7032C6.17671 15.7068 5.81823 15.692 5.46191 15.714C4.28187 15.7868 3.48604 16.5073 3.46582 17.711C3.41894 20.5078 3.41981 23.3068 3.46777 26.1036C3.48931 27.3558 4.36114 28.1414 5.62793 28.1671C6.96028 28.194 8.29443 28.1426 9.62695 28.1651C13.0343 28.2227 15.3379 30.5976 15.3633 34.0567C15.3724 35.3076 15.3533 36.5594 15.3818 37.8097C15.4188 39.4258 16.2726 40.3112 17.8789 40.3302C20.3496 40.3592 22.8214 40.3532 25.292 40.3185C26.8368 40.2967 27.7028 39.4679 27.7246 37.8341C27.7778 33.8519 27.7726 29.8682 27.7285 25.8858C27.7124 24.4263 26.8681 23.6676 25.415 23.6563C22.8466 23.6367 20.2776 23.6583 17.709 23.6515C14.2977 23.6424 11.9885 21.3492 11.9697 17.9073C11.9478 13.8916 11.9583 9.87532 11.9707 5.85947C11.9802 2.81251 13.9682 0.391472 16.9521 0.172943Z" fill="white"/>
<path d="M16.9521 0.172943C19.9618 -0.0474457 23.0053 -0.0780367 26.0127 0.20517C29.2105 0.506478 31.1123 2.8063 31.1562 6.07333C31.1717 7.22505 31.136 8.37746 31.1436 9.52939C31.156 11.4266 31.891 12.1661 33.7373 12.1612C34.8752 12.1581 36.0136 12.1381 37.1514 12.1485C40.6044 12.1801 43.0533 14.6381 43.082 18.1183C43.1034 20.7186 43.1054 23.3196 43.0938 25.92C43.0805 28.8828 41.0653 31.2174 38.1719 31.627C37.1056 31.778 36.0088 31.8375 34.9658 31.6173C33.3699 31.2802 34.471 29.9397 34.209 29.0929C34.0097 28.4498 34.4381 28.1418 35.0908 28.1554C35.8383 28.1709 36.5867 28.1734 37.334 28.1524C38.7434 28.1129 39.6172 27.3174 39.6436 25.8917C39.6927 23.2263 39.6986 20.5578 39.6426 17.8927C39.611 16.399 38.658 15.5612 37.1543 15.6026C35.6931 15.6429 34.2379 15.7537 32.7734 15.5968C29.9981 15.2993 27.8503 13.0341 27.7607 10.2042C27.7201 8.92187 27.759 7.63715 27.749 6.35361C27.7341 4.42391 26.8336 3.47918 24.9141 3.56357C22.4757 3.6709 20.0381 3.62483 17.6006 3.65732C16.1078 3.67724 15.383 4.39933 15.375 5.91318C15.3542 9.86297 15.3491 13.813 15.3643 17.7628C15.3705 19.3859 16.1706 20.1911 17.7764 20.2032C20.3123 20.2224 22.8487 20.1973 25.3848 20.1993C28.7578 20.2021 31.0773 22.405 31.1357 25.8194C31.2067 29.9656 31.2067 34.1144 31.1484 38.2608C31.1059 41.2922 28.6162 43.6929 25.4873 43.7686C22.7901 43.8339 20.0892 43.8336 17.3916 43.7823C14.8153 43.7332 12.8021 42.0018 12.0615 39.2667C11.8712 37.5083 11.9859 35.8285 11.9639 34.1515C11.9423 32.5122 11.1943 31.728 9.58398 31.6964C7.99333 31.6652 6.40054 31.8162 4.81152 31.5987C2.12389 31.2309 0.0731249 28.9429 0.0458984 26.1954C0.0193476 23.4964 0.141202 20.7912 0.00683594 18.0987C-0.141422 15.1279 2.09047 12.4553 5.23828 12.2101C6.17618 12.1371 7.12307 12.1704 8.06543 12.1583C8.61044 12.1514 8.93195 12.3887 8.91895 12.9796C8.91751 13.0453 8.92399 13.1111 8.92383 13.1768C8.91696 16.006 9.25138 15.6759 6.53418 15.7032C6.17671 15.7068 5.81823 15.692 5.46191 15.714C4.28187 15.7868 3.48604 16.5073 3.46582 17.711C3.41894 20.5078 3.41981 23.3068 3.46777 26.1036C3.48931 27.3558 4.36114 28.1414 5.62793 28.1671C6.96028 28.194 8.29443 28.1426 9.62695 28.1651C13.0343 28.2227 15.3379 30.5976 15.3633 34.0567C15.3724 35.3076 15.3533 36.5594 15.3818 37.8097C15.4188 39.4258 16.2726 40.3112 17.8789 40.3302C20.3496 40.3592 22.8214 40.3532 25.292 40.3185C26.8368 40.2967 27.7028 39.4679 27.7246 37.8341C27.7778 33.8519 27.7726 29.8682 27.7285 25.8858C27.7124 24.4263 26.8681 23.6676 25.415 23.6563C22.8466 23.6367 20.2776 23.6583 17.709 23.6515C14.2977 23.6424 11.9885 21.3492 11.9697 17.9073C11.9478 13.8916 11.9583 9.87532 11.9707 5.85947C11.9802 2.81251 13.9682 0.391472 16.9521 0.172943Z" stroke="#1C1917"/>
<path d="M92.4673 11.2665C92.0618 10.9419 91.4463 11.0054 91.455 10.3431C91.4625 9.76478 91.9377 9.85544 92.2748 9.72795C92.7193 9.55985 92.7108 9.11516 92.7837 8.75503C93.1613 6.89058 94.4759 5.93138 96.1422 5.43928C97.5649 5.01912 99.0441 5.07188 100.5 5.42503C102.92 6.01202 104.029 7.5534 104.006 10.288C103.984 12.8737 103.978 15.4595 103.962 18.0452C103.957 18.8706 103.895 19.7086 105.011 19.9263C105.289 19.9805 105.44 20.2427 105.416 20.5546C105.391 20.8689 105.19 21.0396 104.912 21.118C103.872 21.4114 102.841 21.7531 101.785 21.9653C100.782 22.1666 100.517 21.5174 100.52 20.6507C100.529 17.7904 100.529 14.9301 100.525 12.0698C100.524 10.9104 100.539 9.74924 100.483 8.59196C100.404 6.94698 99.5277 6.24443 97.8885 6.43795C96.7508 6.57226 95.7949 7.99583 95.9961 9.21026C96.0696 9.65408 96.3217 9.78007 96.7152 9.78356C97.1014 9.78698 97.4882 9.79064 97.8733 9.8167C98.1735 9.83701 98.3812 9.99688 98.4198 10.3135C98.4672 10.7025 98.2275 10.8678 97.8967 10.9533C97.8593 10.9629 97.8213 10.9706 97.7838 10.9798C95.9791 11.4216 95.9779 11.4216 95.9772 13.3348C95.9764 15.2288 95.9908 17.123 95.9726 19.0168C95.9658 19.7304 96.0573 20.3284 96.8861 20.5318C97.2099 20.6112 97.4361 20.8291 97.3659 21.211C97.295 21.5967 96.986 21.6824 96.6677 21.6858C95.1219 21.7021 93.576 21.7072 92.0301 21.7037C91.7108 21.7029 91.3929 21.6236 91.3256 21.2401C91.2562 20.8443 91.5478 20.6987 91.8505 20.5938C92.3444 20.4224 92.6235 20.1004 92.6149 19.5627C92.5712 16.8225 92.7317 14.08 92.4673 11.2665Z" fill="white"/>
<path d="M73.4565 17.2777C73.4572 18.011 73.4737 18.6297 73.4533 19.2473C73.4325 19.8792 73.538 20.3967 74.2667 20.5746C74.5855 20.6524 74.8339 20.8658 74.7718 21.2421C74.6962 21.7 74.3136 21.7145 73.9646 21.7168C72.4963 21.7268 71.028 21.7263 69.5598 21.7228C69.2482 21.722 68.8958 21.7118 68.7829 21.3552C68.6414 20.9082 68.9809 20.7671 69.3226 20.623C69.8889 20.3841 70.0908 19.9242 70.087 19.3209C70.0733 17.1185 70.1115 14.9154 70.0667 12.7138C70.0405 11.4257 68.9815 10.8444 67.8834 11.5181C66.8578 12.1473 66.1106 13.0499 66.0758 14.3224C66.0304 15.9827 66.071 17.6452 66.0487 19.3064C66.0403 19.9325 66.3021 20.3297 66.8707 20.5589C67.1671 20.6785 67.4437 20.8437 67.3856 21.2293C67.3149 21.6983 66.9261 21.7026 66.583 21.7062C65.1149 21.7218 63.6466 21.7232 62.1784 21.7209C61.8265 21.7204 61.4486 21.7069 61.3705 21.2494C61.3023 20.85 61.6032 20.7116 61.9058 20.6141C62.5318 20.4122 62.6799 19.9557 62.6742 19.3522C62.655 17.3431 62.6551 15.3337 62.6679 13.3245C62.6716 12.7321 62.5617 12.2463 61.9166 12.0568C61.5926 11.9616 61.3545 11.7762 61.3538 11.4131C61.3529 10.9687 61.7097 10.8688 62.0403 10.7469C62.6554 10.52 63.2773 10.3078 63.8795 10.0501C65.7326 9.25681 65.7817 9.27476 66.1966 11.1908C66.678 11.1822 66.9034 10.767 67.2173 10.5177C68.595 9.42345 70.125 9.24797 71.684 9.92542C73.1275 10.5527 73.3572 11.9676 73.4403 13.3383C73.5174 14.6087 73.4563 15.8875 73.4565 17.2777Z" fill="white"/>
<path d="M53.1357 9.67048C53.1269 10.789 53.7776 11.361 54.6 11.7968C55.8285 12.4478 57.1077 13.0146 58.287 13.744C60.0754 14.8501 60.7906 16.5965 60.3849 18.4994C59.9847 20.3759 58.5771 21.6661 56.5444 22.0311C55.5292 22.2133 54.552 22.06 53.5735 21.776C52.7231 21.5292 51.9254 20.9903 50.9529 21.6601C50.4857 21.9818 49.9905 21.5726 49.9661 20.9258C49.937 20.1535 49.9329 19.3802 49.9268 18.6072C49.9243 18.294 49.9316 17.9615 50.3144 17.8551C50.6898 17.7509 51.0055 17.8832 51.2289 18.1948C51.4987 18.5713 51.728 18.9782 52.0132 19.3418C52.7238 20.2477 53.6658 20.7148 54.8212 20.7193C55.8175 20.7231 56.7338 20.461 57.0226 19.4014C57.3102 18.346 57.2154 17.2778 56.1403 16.6392C55.0459 15.989 53.9093 15.4088 52.7818 14.8158C52.052 14.432 51.409 13.9489 50.916 13.2862C49.7921 11.7751 49.6737 9.94432 50.5951 8.51275C51.6218 6.91745 53.7359 6.15597 55.8317 6.66186C56.703 6.87219 57.4849 7.34272 58.473 6.83544C59.0768 6.52546 59.4057 7.18561 59.2807 7.71797C59.074 8.59816 60.0085 9.79072 58.6737 10.3375C58.2116 10.5268 57.967 9.96076 57.7513 9.60855C57.34 8.93708 56.8836 8.33863 56.1029 8.05346C54.5675 7.49254 53.5739 7.99957 53.1357 9.67048Z" fill="white"/>
<path d="M106.113 15.8748C106.243 12.9067 107.318 10.6838 110.261 9.76639C113.656 8.70822 117.058 11.2191 116.845 14.6124C116.77 15.8162 116.394 16.1968 115.215 16.2068C113.749 16.2192 112.28 16.2687 110.818 16.1893C109.739 16.1307 109.541 16.6392 109.705 17.5209C109.768 17.8612 109.852 18.2003 109.96 18.529C110.3 19.5637 110.822 20.471 112.003 20.6625C113.202 20.8567 114.231 20.5112 114.882 19.4088C115.186 18.8946 115.64 18.6223 116.116 18.9655C116.648 19.3498 116.171 19.8109 115.928 20.1587C114.166 22.6819 109.848 22.5928 107.608 20.0268C106.586 18.8558 106.262 17.4551 106.113 15.8748ZM112.208 14.9286C112.72 14.8263 113.574 15.2253 113.604 14.3578C113.639 13.3335 113.56 12.2468 112.901 11.3632C112.375 10.6581 111.671 10.6104 110.954 11.0582C110.22 11.5158 109.355 13.8344 109.759 14.5212C110.253 15.359 111.171 14.7631 111.88 14.9273C111.916 14.9358 111.957 14.9285 112.208 14.9286Z" fill="white"/>
<path d="M90.2333 9.10493C89.6074 8.79213 89.4003 8.31909 89.3514 7.74518C89.321 7.38809 89.2547 7.03444 88.832 6.93724C88.3785 6.83298 87.9654 6.95384 87.6963 7.33176C87.2536 7.95332 87.0606 8.67538 87.2323 9.41652C87.3464 9.90897 87.8536 9.76086 88.2221 9.78547C88.4916 9.80347 88.763 9.79041 89.0328 9.8047C89.3737 9.82274 89.6387 9.94335 89.6522 10.342C89.6651 10.7239 89.4267 10.8881 89.0972 10.9691C89.0597 10.9784 89.0216 10.9851 88.984 10.994C87.1701 11.4198 87.1685 11.4198 87.1665 13.3354C87.1646 15.2286 87.1778 17.1218 87.1605 19.0147C87.1539 19.7258 87.2354 20.3284 88.0784 20.5166C88.4404 20.5975 88.7368 20.8102 88.6323 21.2525C88.5293 21.6882 88.1528 21.7095 87.8006 21.7107C86.2939 21.7158 84.7872 21.7175 83.2805 21.7039C82.9404 21.7009 82.5371 21.7047 82.4445 21.26C82.3556 20.8329 82.6427 20.6142 83.0105 20.5226C83.744 20.34 83.8135 19.7866 83.8131 19.1734C83.8115 16.8167 83.8123 14.46 83.8185 12.1033C83.8199 11.5709 83.7757 11.0962 83.1165 10.9601C82.7683 10.8883 82.6122 10.6326 82.6508 10.2693C82.6866 9.9326 82.9179 9.81382 83.2076 9.79198C83.8095 9.7466 83.9401 9.33874 84.0059 8.83858C84.4511 5.45732 88.9254 4.62197 91.1666 6.44481C91.7848 6.94761 92.1096 7.60437 91.8135 8.3888C91.5652 9.04654 91.0302 9.31505 90.2333 9.10493Z" fill="white"/>
<path d="M124.112 11.3307C123.737 11.1271 123.439 10.9368 123.113 10.8378C122.317 10.5959 121.5 10.5991 121.114 11.4571C120.714 12.3444 121.022 13.1034 121.9 13.6078C123.104 14.2992 124.443 14.7368 125.569 15.5726C126.407 16.1944 127.015 16.9403 127.079 18.0452C127.244 20.8773 124.293 22.8283 121.387 21.7644C120.66 21.4981 120.034 21.1646 119.219 21.635C118.733 21.9162 118.363 21.5197 118.334 20.933C118.304 20.3169 118.259 19.7016 118.229 19.0856C118.21 18.7068 118.116 18.2763 118.644 18.1473C119.112 18.0328 119.354 18.3306 119.549 18.6917C120.191 19.878 121.055 20.7441 122.514 20.7648C123.232 20.775 123.95 20.7659 124.194 19.8951C124.435 19.0367 124.111 18.3808 123.372 17.927C123.045 17.7259 122.689 17.5715 122.345 17.3974C121.691 17.0665 121.014 16.7754 120.387 16.3992C118.414 15.2143 117.632 13.2381 118.419 11.5247C119.131 9.97686 121.542 9.11256 123.473 9.74406C124.118 9.95508 124.667 10.2881 125.416 9.85359C125.928 9.55613 126.453 9.97557 126.336 10.6104C126.179 11.4607 127.028 12.5554 125.816 13.1383C125.475 13.3022 125.184 12.9576 125.024 12.6163C124.81 12.1597 124.562 11.725 124.112 11.3307Z" fill="white"/>
<path d="M80.3113 21.7212C79.0053 21.7173 77.8078 21.7225 76.6108 21.7044C76.2349 21.6987 75.7934 21.7298 75.6954 21.2096C75.6074 20.7432 75.9762 20.6286 76.3024 20.5052C76.9148 20.2735 77.0357 19.7902 77.0319 19.2022C77.0191 17.2326 77.0192 15.2627 77.0303 13.2931C77.034 12.6556 76.9025 12.1471 76.1827 11.9803C75.8487 11.9029 75.6599 11.6751 75.6667 11.3092C75.6738 10.9246 75.9262 10.7999 76.2434 10.6944C77.1222 10.402 77.9944 10.0892 78.8677 9.78015C80.0049 9.37762 80.3918 9.61803 80.3968 10.8123C80.4082 13.4771 80.3956 16.1421 80.38 18.8069C80.3754 19.5985 80.3152 20.3823 81.3574 20.6173C81.6385 20.6807 81.7893 20.9393 81.7193 21.2543C81.6625 21.51 81.4718 21.6457 81.2284 21.6772C80.9615 21.7118 80.6897 21.7082 80.3113 21.7212Z" fill="white"/>
<path d="M77.2194 5.59262C78.6208 4.70196 79.8552 5.00374 80.1424 6.24912C80.3202 7.02006 80.1762 7.74237 79.4253 8.1532C78.7298 8.53378 77.9848 8.52917 77.3806 7.96821C76.6523 7.29195 76.6614 6.48629 77.2194 5.59262Z" fill="white"/>
<path d="M117.523 42.2158C116.111 42.2158 115.08 41.4286 115.08 39.6913V34.778C115.08 32.905 114.157 31.4664 112.474 31.4664C110.764 31.4664 109.787 32.905 109.787 34.778V39.4741C109.787 40.7228 110.248 41.1028 111.497 41.2114V42.0529H104.792V41.2114C106.068 41.1028 106.529 40.7228 106.529 39.4741V27.3132C106.529 26.0645 106.013 25.7387 104.792 25.8473V25.0058L108.592 24.3001C109.379 24.1643 109.787 24.5172 109.787 25.2501V30.462C109.787 31.4392 110.221 31.6835 110.574 31.2763C111.144 30.5977 112.175 29.5119 114.32 29.5119C116.328 29.5119 118.337 30.4891 118.337 34.1537V39.6913C118.337 40.6142 118.799 40.9943 119.586 40.75V41.2386C119.233 41.9443 118.337 42.2158 117.523 42.2158Z" fill="white"/>
<path d="M101.582 42.1885C99.3563 42.1885 97.9448 40.9942 97.9448 38.524V31.9006C97.9448 31.0591 97.7276 30.8962 97.2118 30.8962H95.9632V30.1361C97.8905 29.5932 98.8948 28.6432 99.7635 27.1773C99.9263 26.9059 100.089 26.8244 100.361 26.8244H100.741C101.039 26.8244 101.229 27.0145 101.229 27.3131L101.202 29.0775C101.202 29.6475 101.446 29.8104 102.749 29.8104H104.65V31.0591L102.749 30.9505C101.446 30.8691 101.202 31.1134 101.202 31.9549V38.3068C101.202 39.8541 101.419 40.8584 102.749 40.8584C103.238 40.8584 103.754 40.7227 104.188 40.3698C104.541 40.7499 104.595 41.0756 104.351 41.2928C103.781 41.8085 102.831 42.1885 101.582 42.1885Z" fill="white"/>
<path d="M94.1749 42.2158C92.7633 42.2158 91.7318 41.4286 91.7318 39.6913V27.3132C91.7318 26.0645 91.2161 25.7387 89.9945 25.8473V25.0058L93.7948 24.3001C94.5821 24.1643 94.9892 24.5172 94.9892 25.2501V39.6913C94.9892 40.6142 95.4507 40.9943 96.2379 40.75V41.2386C95.885 41.9443 94.9892 42.2158 94.1749 42.2158Z" fill="white"/>
<path d="M81.4742 42.2157C79.6284 42.2157 77.9182 41.3471 77.9182 39.2298C77.9182 37.031 79.7641 35.7009 85.0574 34.9408C85.8174 34.8323 86.0346 34.6423 86.0346 33.9365V33.5022C86.0346 31.5477 85.4102 30.5434 83.863 30.5434C80.7684 30.5434 83.1301 34.1536 80.307 34.1536C79.2212 34.1536 78.7054 33.475 78.7054 32.6064C78.7054 30.5162 81.6642 29.5661 84.6502 29.5661C87.8533 29.5661 89.292 30.7334 89.292 34.5065V39.6912C89.292 40.6142 89.6177 41.0213 90.4049 40.7499V41.2385C90.052 41.9443 89.2648 42.2157 88.4233 42.2157C86.9032 42.2157 86.1975 41.3199 86.0889 40.3427C86.0617 40.017 85.8446 39.9627 85.6003 40.2613C84.8402 41.2114 83.4287 42.2157 81.4742 42.2157ZM81.2571 38.5783C81.2571 39.5555 81.8271 40.397 83.1572 40.397C84.8131 40.397 86.0346 39.1212 86.0346 37.411V36.7053C86.0346 36.0809 85.8174 35.8095 84.9488 35.8909C81.9357 36.1624 81.2571 37.5196 81.2571 38.5783Z" fill="white"/>
<path d="M71.7614 42.2157C68.3683 42.2157 65.2195 40.0713 65.2195 35.9452C65.2195 31.6834 68.5312 29.5661 71.9243 29.5661C74.7474 29.5661 76.8104 31.032 76.8104 33.2579C76.8104 35.4295 74.8831 35.7823 71.87 35.9724L69.617 36.1081C69.1284 36.1352 68.9112 36.3795 68.9112 36.9767C68.9112 38.9855 71.0014 40.3699 73.2815 40.3699C74.3402 40.3699 75.6432 40.0713 76.5932 38.9312L77.2447 39.5012C76.729 40.5056 74.8017 42.2157 71.7614 42.2157ZM68.7483 34.1265C68.7483 34.968 68.9926 35.2394 69.6441 35.2123L71.0557 35.1309C73.2273 34.9951 73.7702 34.5337 73.7702 33.285C73.7702 31.9006 73.1187 30.5976 71.49 30.5976C69.4541 30.5976 68.7483 32.6064 68.7483 34.1265Z" fill="white"/>
<path d="M63.0153 42.2158C61.6037 42.2158 60.5722 41.4286 60.5722 39.6913V34.778C60.5722 32.905 59.6493 31.4663 57.9663 31.4663C56.2562 31.4663 55.2789 32.905 55.2789 34.778V39.4741C55.2789 40.7228 55.7404 41.1028 56.9891 41.2114V42.0529H50.2842V41.2114C51.5601 41.1028 52.0215 40.7228 52.0215 39.4741V27.3131C52.0215 26.0645 51.5058 25.7387 50.2842 25.8473V25.0058L54.0845 24.3C54.8718 24.1643 55.2789 24.5172 55.2789 25.2501V30.462C55.2789 31.4392 55.7132 31.6835 56.0661 31.2763C56.6362 30.5977 57.6677 29.5119 59.8122 29.5119C61.8209 29.5119 63.8296 30.4891 63.8296 34.1537V39.6913C63.8296 40.6142 64.2911 40.9942 65.0783 40.7499V41.2386C64.7254 41.9443 63.8296 42.2158 63.0153 42.2158Z" fill="white"/>
</svg>
