<svg preserveAspectRatio="none" width="100%" height="100%" overflow="visible" style="display: block;" viewBox="0 0 95.7076 33" fill="none" xmlns="http://www.w3.org/2000/svg">
<g id="Group 1">
<g id="Vector">
<path d="M12.7666 0.129883C15.0332 -0.0360882 17.325 -0.0589832 19.5899 0.154297C21.9982 0.381133 23.4308 2.11374 23.4639 4.57422C23.4755 5.44148 23.4484 6.30934 23.4541 7.17676C23.4635 8.60541 24.017 9.16184 25.4072 9.1582C26.2642 9.15588 27.1217 9.14061 27.9785 9.14844C30.5789 9.17222 32.4236 11.0237 32.4453 13.6445C32.4614 15.6028 32.4619 17.5621 32.4531 19.5205C32.443 21.7516 30.926 23.5099 28.7471 23.8184C27.9441 23.932 27.1184 23.9763 26.333 23.8105C25.1308 23.5567 25.9604 22.547 25.7627 21.9092C25.6127 21.425 25.9352 21.1939 26.4268 21.2041C26.9897 21.2158 27.5535 21.2169 28.1162 21.2012C29.1775 21.1714 29.8355 20.5726 29.8555 19.499C29.8925 17.4919 29.8967 15.4825 29.8545 13.4756C29.8309 12.3507 29.1138 11.72 27.9815 11.751C26.881 11.7813 25.7845 11.8643 24.6816 11.7461C22.5915 11.522 20.9737 9.81573 20.9063 7.68457C20.8757 6.71877 20.905 5.75089 20.8975 4.78418C20.8861 3.33112 20.2082 2.62006 18.7627 2.68359C16.9264 2.76442 15.0906 2.72944 13.2549 2.75391C12.1307 2.76892 11.5841 3.31306 11.5781 4.45313C11.5625 7.42768 11.5599 10.4024 11.5713 13.377C11.576 14.5992 12.1776 15.2056 13.3867 15.2148C15.2966 15.2293 17.2072 15.2104 19.1172 15.2119C21.6574 15.214 23.4042 16.873 23.4483 19.4443C23.5017 22.5669 23.5019 25.6917 23.458 28.8145C23.4259 31.0973 21.5506 32.9049 19.1943 32.9619C17.1631 33.0111 15.1292 33.0113 13.0977 32.9727C11.1573 32.9358 9.64069 31.6313 9.08302 29.5713C8.9397 28.2469 9.02736 26.9818 9.01075 25.7188C8.99444 24.4844 8.43033 23.8939 7.21778 23.8701C6.01987 23.8467 4.81974 23.9606 3.62306 23.7969C1.59923 23.5197 0.0556595 21.7965 0.035165 19.7275C0.0151696 17.6949 0.106084 15.6576 0.0048916 13.6299C-0.106714 11.3925 1.57456 9.37981 3.94532 9.19531C4.65164 9.14035 5.36455 9.1654 6.07423 9.15625C6.48449 9.15109 6.7265 9.32964 6.71681 9.77441C6.71572 9.82376 6.71983 9.87345 6.71974 9.92285C6.71456 12.0535 6.96723 11.8056 4.92091 11.8262C4.65167 11.8289 4.38166 11.8174 4.11329 11.834C3.22465 11.8888 2.62565 12.4315 2.61036 13.3379C2.57506 15.4441 2.57522 17.552 2.61134 19.6582C2.62751 20.6013 3.2843 21.1925 4.23829 21.2119C5.24168 21.2322 6.24649 21.194 7.25001 21.2109C9.81611 21.2543 11.5513 23.0433 11.5703 25.6484C11.5772 26.5902 11.5625 27.5323 11.584 28.4736C11.6118 29.6909 12.255 30.3579 13.4649 30.3721C15.3255 30.3939 17.1872 30.3894 19.0479 30.3633C20.2111 30.3468 20.8625 29.7225 20.8789 28.4922C20.9189 25.4933 20.916 22.4932 20.8828 19.4941C20.8706 18.3949 20.2341 17.8238 19.1397 17.8154C17.2053 17.8006 15.2704 17.8166 13.3359 17.8115C10.7672 17.8046 9.02896 16.0781 9.01466 13.4863C8.99813 10.4621 9.00529 7.43738 9.01466 4.41309C9.02177 2.11836 10.5193 0.29446 12.7666 0.129883Z" fill="var(--fill-0, #164E63)"/>
<path d="M12.7666 0.129883C15.0332 -0.0360882 17.325 -0.0589832 19.5899 0.154297C21.9982 0.381133 23.4308 2.11374 23.4639 4.57422C23.4755 5.44148 23.4484 6.30934 23.4541 7.17676C23.4635 8.60541 24.017 9.16184 25.4072 9.1582C26.2642 9.15588 27.1217 9.14061 27.9785 9.14844C30.5789 9.17222 32.4236 11.0237 32.4453 13.6445C32.4614 15.6028 32.4619 17.5621 32.4531 19.5205C32.443 21.7516 30.926 23.5099 28.7471 23.8184C27.9441 23.932 27.1184 23.9763 26.333 23.8105C25.1308 23.5567 25.9604 22.547 25.7627 21.9092C25.6127 21.425 25.9352 21.1939 26.4268 21.2041C26.9897 21.2158 27.5535 21.2169 28.1162 21.2012C29.1775 21.1714 29.8355 20.5726 29.8555 19.499C29.8925 17.4919 29.8967 15.4825 29.8545 13.4756C29.8309 12.3507 29.1138 11.72 27.9815 11.751C26.881 11.7813 25.7845 11.8643 24.6816 11.7461C22.5915 11.522 20.9737 9.81573 20.9063 7.68457C20.8757 6.71877 20.905 5.75089 20.8975 4.78418C20.8861 3.33112 20.2082 2.62006 18.7627 2.68359C16.9264 2.76442 15.0906 2.72944 13.2549 2.75391C12.1307 2.76892 11.5841 3.31306 11.5781 4.45313C11.5625 7.42768 11.5599 10.4024 11.5713 13.377C11.576 14.5992 12.1776 15.2056 13.3867 15.2148C15.2966 15.2293 17.2072 15.2104 19.1172 15.2119C21.6574 15.214 23.4042 16.873 23.4483 19.4443C23.5017 22.5669 23.5019 25.6917 23.458 28.8145C23.4259 31.0973 21.5506 32.9049 19.1943 32.9619C17.1631 33.0111 15.1292 33.0113 13.0977 32.9727C11.1573 32.9358 9.64069 31.6313 9.08302 29.5713C8.9397 28.2469 9.02736 26.9818 9.01075 25.7188C8.99444 24.4844 8.43033 23.8939 7.21778 23.8701C6.01987 23.8467 4.81974 23.9606 3.62306 23.7969C1.59923 23.5197 0.0556595 21.7965 0.035165 19.7275C0.0151696 17.6949 0.106084 15.6576 0.0048916 13.6299C-0.106714 11.3925 1.57456 9.37981 3.94532 9.19531C4.65164 9.14035 5.36455 9.1654 6.07423 9.15625C6.48449 9.15109 6.7265 9.32964 6.71681 9.77441C6.71572 9.82376 6.71983 9.87345 6.71974 9.92285C6.71456 12.0535 6.96723 11.8056 4.92091 11.8262C4.65167 11.8289 4.38166 11.8174 4.11329 11.834C3.22465 11.8888 2.62565 12.4315 2.61036 13.3379C2.57506 15.4441 2.57522 17.552 2.61134 19.6582C2.62751 20.6013 3.2843 21.1925 4.23829 21.2119C5.24168 21.2322 6.24649 21.194 7.25001 21.2109C9.81611 21.2543 11.5513 23.0433 11.5703 25.6484C11.5772 26.5902 11.5625 27.5323 11.584 28.4736C11.6118 29.6909 12.255 30.3579 13.4649 30.3721C15.3255 30.3939 17.1872 30.3894 19.0479 30.3633C20.2111 30.3468 20.8625 29.7225 20.8789 28.4922C20.9189 25.4933 20.916 22.4932 20.8828 19.4941C20.8706 18.3949 20.2341 17.8238 19.1397 17.8154C17.2053 17.8006 15.2704 17.8166 13.3359 17.8115C10.7672 17.8046 9.02896 16.0781 9.01466 13.4863C8.99813 10.4621 9.00529 7.43738 9.01466 4.41309C9.02177 2.11836 10.5193 0.29446 12.7666 0.129883Z" stroke="var(--stroke-0, #164E63)"/>
</g>
<path id="Vector_2" d="M69.6366 8.48468C69.3312 8.24026 68.8677 8.28805 68.8742 7.78928C68.8799 7.35376 69.2378 7.42203 69.4916 7.32603C69.8264 7.19943 69.82 6.86453 69.8749 6.59332C70.1592 5.18921 71.1493 4.46684 72.4041 4.09624C73.4755 3.77982 74.5895 3.81956 75.686 4.08551C77.5083 4.52757 78.3439 5.68838 78.3265 7.74776C78.31 9.69504 78.3049 11.6424 78.293 13.5897C78.2892 14.2113 78.2426 14.8424 79.0833 15.0064C79.2924 15.0472 79.4066 15.2446 79.3881 15.4795C79.3695 15.7162 79.218 15.8448 79.0088 15.9038C78.2256 16.1248 77.4492 16.3821 76.6534 16.5419C75.8983 16.6935 75.6986 16.2046 75.7008 15.5519C75.7081 13.3978 75.7079 11.2437 75.705 9.08968C75.7039 8.21651 75.7154 7.34205 75.6733 6.47051C75.6133 5.23169 74.9538 4.7026 73.7193 4.84834C72.8625 4.94948 72.1426 6.02157 72.2941 6.93615C72.3494 7.27039 72.5393 7.36527 72.8357 7.3679C73.1265 7.37048 73.4178 7.37324 73.7078 7.39286C73.9339 7.40815 74.0903 7.52855 74.1194 7.76696C74.1551 8.05995 73.9745 8.18444 73.7254 8.24879C73.6972 8.25607 73.6687 8.26186 73.6404 8.26879C72.2813 8.60152 72.2804 8.60153 72.2798 10.0423C72.2792 11.4687 72.2901 12.8952 72.2764 14.3214C72.2713 14.8588 72.3402 15.3092 72.9644 15.4623C73.2082 15.5222 73.3785 15.6863 73.3257 15.9738C73.2723 16.2643 73.0396 16.3289 72.7999 16.3314C71.6358 16.3437 70.4715 16.3476 69.3073 16.3449C69.0669 16.3443 68.8275 16.2845 68.7768 15.9957C68.7245 15.6977 68.9441 15.5881 69.1721 15.509C69.544 15.38 69.7542 15.1375 69.7477 14.7325C69.7149 12.6689 69.8357 10.6036 69.6366 8.48468Z" fill="var(--fill-0, #164E63)"/>
<path id="Vector_3" d="M55.3198 13.0118C55.3203 13.564 55.3327 14.03 55.3174 14.495C55.3017 14.9709 55.3812 15.3607 55.9299 15.4946C56.17 15.5532 56.3571 15.714 56.3103 15.9974C56.2534 16.3422 55.9652 16.3531 55.7024 16.3549C54.5967 16.3624 53.4909 16.362 52.3851 16.3593C52.1505 16.3588 51.8851 16.3511 51.8001 16.0825C51.6935 15.7459 51.9492 15.6396 52.2065 15.5311C52.6331 15.3512 52.7851 15.0049 52.7822 14.5505C52.7719 12.8919 52.8006 11.2327 52.7669 9.57472C52.7472 8.60467 51.9497 8.16687 51.1227 8.67426C50.3503 9.14813 49.7876 9.82783 49.7614 10.7861C49.7272 12.0365 49.7577 13.2885 49.741 14.5396C49.7347 15.0111 49.9318 15.3102 50.36 15.4829C50.5833 15.5729 50.7916 15.6973 50.7478 15.9877C50.6945 16.3409 50.4017 16.3441 50.1434 16.3468C49.0377 16.3586 47.932 16.3596 46.8262 16.3579C46.5612 16.3575 46.2767 16.3474 46.2178 16.0028C46.1665 15.7021 46.3931 15.5978 46.6209 15.5244C47.0925 15.3724 47.204 15.0285 47.1997 14.5741C47.1852 13.061 47.1853 11.5477 47.1949 10.0346C47.1977 9.58852 47.1149 9.22268 46.6291 9.07991C46.3852 9.00821 46.2058 8.86859 46.2053 8.59517C46.2046 8.26049 46.4733 8.18526 46.7223 8.09345C47.1855 7.92257 47.6539 7.7628 48.1073 7.56867C49.5029 6.97128 49.5399 6.98479 49.8524 8.42775C50.2149 8.42126 50.3846 8.1086 50.621 7.92085C51.6586 7.09677 52.8108 6.96462 53.9849 7.4748C55.072 7.94721 55.245 9.01279 55.3076 10.045C55.3656 11.0018 55.3196 11.9648 55.3198 13.0118Z" fill="var(--fill-0, #164E63)"/>
<path id="Vector_4" d="M40.0161 7.28266C40.0095 8.12502 40.4996 8.55579 41.1189 8.88402C42.0441 9.37426 43.0075 9.8011 43.8955 10.3504C45.2424 11.1834 45.781 12.4986 45.4755 13.9316C45.1741 15.3448 44.1141 16.3165 42.5832 16.5914C41.8187 16.7286 41.0828 16.6132 40.3459 16.3993C39.7054 16.2134 39.1047 15.8076 38.3723 16.312C38.0205 16.5542 37.6475 16.2461 37.6291 15.759C37.6072 15.1774 37.6041 14.595 37.5995 14.0129C37.5977 13.777 37.6031 13.5266 37.8914 13.4465C38.1741 13.368 38.4119 13.4676 38.5802 13.7023C38.7833 13.9858 38.956 14.2923 39.1708 14.5661C39.7059 15.2483 40.4154 15.6001 41.2855 15.6035C42.0358 15.6063 42.7258 15.409 42.9433 14.6109C43.1599 13.8162 43.0885 13.0117 42.2789 12.5307C41.4547 12.0411 40.5987 11.6042 39.7496 11.1576C39.2 10.8685 38.7158 10.5047 38.3445 10.0056C37.4981 8.8676 37.409 7.48889 38.1028 6.41078C38.876 5.20936 40.4682 4.6359 42.0465 5.01689C42.7027 5.17528 43.2915 5.52963 44.0356 5.1476C44.4904 4.91416 44.738 5.41132 44.6439 5.81224C44.4883 6.4751 45.192 7.37321 44.1868 7.78496C43.8387 7.92753 43.6546 7.50127 43.4921 7.23602C43.1824 6.73034 42.8386 6.27966 42.2507 6.06489C41.0944 5.64247 40.3461 6.0243 40.0161 7.28266Z" fill="var(--fill-0, #164E63)"/>
<path id="Vector_5" d="M79.9134 11.9553C80.0111 9.72 80.821 8.04593 83.0372 7.35503C85.5935 6.55813 88.1555 8.44908 87.9956 11.0046C87.9388 11.9111 87.6556 12.1977 86.7678 12.2053C85.6638 12.2146 84.5572 12.2519 83.4563 12.1921C82.6437 12.148 82.4948 12.5309 82.6182 13.1949C82.6659 13.4512 82.7292 13.7066 82.8105 13.9541C83.0664 14.7333 83.4595 15.4166 84.3492 15.5608C85.2517 15.7071 86.0266 15.4469 86.5171 14.6167C86.7459 14.2294 87.0879 14.0244 87.446 14.2828C87.847 14.5722 87.4879 14.9195 87.305 15.1814C85.9778 17.0817 82.7258 17.0146 81.039 15.0821C80.2692 14.2002 80.0257 13.1453 79.9134 11.9553ZM84.5031 11.2427C84.8892 11.1656 85.5323 11.4661 85.5547 10.8128C85.5811 10.0414 85.5216 9.22301 85.0254 8.5576C84.6293 8.02654 84.0992 7.99065 83.5587 8.32786C83.0062 8.67251 82.3545 10.4186 82.6591 10.9359C83.0307 11.5668 83.7221 11.118 84.2559 11.2417C84.2835 11.2481 84.3139 11.2426 84.5031 11.2427Z" fill="var(--fill-0, #164E63)"/>
<path id="Vector_6" d="M67.9542 6.8568C67.4828 6.62123 67.3269 6.26499 67.2901 5.83279C67.2672 5.56386 67.2172 5.29753 66.8989 5.22433C66.5573 5.14581 66.2463 5.23682 66.0436 5.52143C65.7102 5.98953 65.5648 6.53331 65.6941 7.09146C65.7801 7.46232 66.1621 7.35078 66.4396 7.36932C66.6425 7.38287 66.8469 7.37304 67.0501 7.3838C67.3068 7.39739 67.5064 7.48821 67.5165 7.78845C67.5263 8.07604 67.3468 8.19969 67.0986 8.26072C67.0703 8.26767 67.0417 8.27277 67.0133 8.27942C65.6473 8.60012 65.6461 8.60013 65.6446 10.0428C65.6431 11.4685 65.6531 12.8943 65.6401 14.3198C65.6351 14.8554 65.6965 15.3091 66.3314 15.4509C66.604 15.5118 66.8272 15.672 66.7485 16.0051C66.6709 16.3332 66.3874 16.3492 66.1221 16.3501C64.9875 16.354 63.8527 16.3553 62.7181 16.345C62.462 16.3427 62.1582 16.3457 62.0885 16.0107C62.0215 15.6891 62.2378 15.5244 62.5147 15.4554C63.0671 15.3179 63.1195 14.9011 63.1192 14.4394C63.118 12.6645 63.1186 10.8897 63.1232 9.11485C63.1243 8.71388 63.091 8.35642 62.5946 8.25396C62.3323 8.19983 62.2148 8.00732 62.2439 7.73369C62.2708 7.48012 62.445 7.39066 62.6632 7.37421C63.1164 7.34005 63.2148 7.03288 63.2644 6.65622C63.5996 4.1098 66.9692 3.48071 68.6571 4.85348C69.1226 5.23213 69.3672 5.72674 69.1442 6.31749C68.9573 6.81283 68.5543 7.01504 67.9542 6.8568Z" fill="var(--fill-0, #164E63)"/>
<path id="Vector_7" d="M93.4681 8.53308C93.1856 8.3797 92.9612 8.23642 92.7159 8.16187C92.1164 7.97968 91.501 7.98207 91.21 8.6282C90.9091 9.29645 91.141 9.86805 91.8024 10.2479C92.709 10.7686 93.7172 11.0982 94.5655 11.7276C95.1966 12.1959 95.6543 12.7576 95.7027 13.5897C95.8267 15.7225 93.6047 17.1918 91.4162 16.3906C90.8683 16.19 90.3967 15.9389 89.7835 16.2931C89.4169 16.5049 89.1383 16.2064 89.1167 15.7645C89.0941 15.3005 89.06 14.8372 89.0375 14.3732C89.0237 14.088 88.9523 13.7638 89.3501 13.6666C89.7027 13.5804 89.8848 13.8046 90.0318 14.0766C90.5149 14.97 91.1661 15.6223 92.2645 15.6378C92.8056 15.6455 93.3461 15.6386 93.5301 14.9829C93.7116 14.3364 93.4674 13.8425 92.9111 13.5007C92.6645 13.3492 92.3963 13.233 92.1373 13.1019C91.6451 12.8527 91.1349 12.6334 90.6631 12.3501C89.1773 11.4578 88.5879 9.96946 89.181 8.67918C89.7169 7.51348 91.5326 6.86258 92.9868 7.33815C93.4727 7.49707 93.8857 7.74789 94.4499 7.42064C94.8361 7.19662 95.2314 7.51251 95.1432 7.99057C95.0249 8.63093 95.664 9.45536 94.7511 9.89434C94.4944 10.0178 94.2757 9.75826 94.155 9.50123C93.9934 9.15737 93.8071 8.82996 93.4681 8.53308Z" fill="var(--fill-0, #164E63)"/>
<path id="Vector_8" d="M60.4819 16.3581C59.4984 16.3552 58.5966 16.3591 57.6951 16.3454C57.412 16.3412 57.0796 16.3646 57.0057 15.9729C56.9395 15.6216 57.2172 15.5353 57.4629 15.4424C57.9241 15.2679 58.0151 14.9039 58.0122 14.4611C58.0026 12.9777 58.0027 11.4943 58.0111 10.0109C58.0138 9.53085 57.9148 9.1479 57.3728 9.02228C57.1212 8.96399 56.979 8.79244 56.9841 8.51691C56.9895 8.22727 57.1796 8.13337 57.4184 8.05389C58.0803 7.83365 58.7371 7.59815 59.3948 7.36536C60.2512 7.06222 60.5426 7.24327 60.5464 8.14268C60.5549 10.1495 60.5455 12.1565 60.5337 14.1634C60.5302 14.7595 60.4849 15.3498 61.2698 15.5268C61.4815 15.5745 61.595 15.7693 61.5423 16.0065C61.4996 16.1991 61.3559 16.3013 61.1726 16.325C60.9716 16.351 60.7669 16.3483 60.4819 16.3581Z" fill="var(--fill-0, #164E63)"/>
<path id="Vector_9" d="M58.1537 4.21169C59.209 3.54094 60.1387 3.76821 60.3549 4.7061C60.4888 5.28669 60.3804 5.83066 59.8149 6.14005C59.2911 6.42667 58.7301 6.42319 58.2751 6.00074C57.7265 5.49145 57.7334 4.88471 58.1537 4.21169Z" fill="var(--fill-0, #164E63)"/>
<g id="health">
<path id="Vector_10" d="M88.506 31.7924C87.443 31.7924 86.6661 31.1996 86.6661 29.8912V26.1911C86.6661 24.7805 85.9711 23.697 84.7036 23.697C83.4157 23.697 82.6798 24.7805 82.6798 26.1911V29.7277C82.6798 30.668 83.0273 30.9542 83.9677 31.036V31.6697H78.9183V31.036C79.8791 30.9542 80.2267 30.668 80.2267 29.7277V20.5693C80.2267 19.6289 79.8382 19.3836 78.9183 19.4654V18.8317L81.7803 18.3001C82.3732 18.1979 82.6798 18.4637 82.6798 19.0156V22.9407C82.6798 23.6766 83.0069 23.8606 83.2726 23.5539C83.7019 23.0429 84.4788 22.2252 86.0937 22.2252C87.6065 22.2252 89.1193 22.9611 89.1193 25.7209V29.8912C89.1193 30.5863 89.4668 30.8725 90.0596 30.6885V31.0565C89.7939 31.588 89.1193 31.7924 88.506 31.7924Z" fill="var(--fill-0, #164E63)"/>
<path id="Vector_11" d="M76.501 31.7719C74.8247 31.7719 73.7616 30.8724 73.7616 29.0121V24.0241C73.7616 23.3904 73.5981 23.2677 73.2097 23.2677H72.2693V22.6953C73.7208 22.2864 74.4771 21.5709 75.1313 20.467C75.254 20.2626 75.3766 20.2013 75.5811 20.2013H75.8672C76.0921 20.2013 76.2352 20.3444 76.2352 20.5692L76.2148 21.898C76.2148 22.3273 76.3988 22.45 77.38 22.45H78.811V23.3904L77.38 23.3086C76.3988 23.2473 76.2148 23.4312 76.2148 24.065V28.8486C76.2148 30.0138 76.3783 30.7702 77.38 30.7702C77.748 30.7702 78.1364 30.668 78.4635 30.4022C78.7292 30.6884 78.7701 30.9337 78.5861 31.0973C78.1568 31.4857 77.4413 31.7719 76.501 31.7719Z" fill="var(--fill-0, #164E63)"/>
<path id="Vector_12" d="M70.9225 31.7924C69.8595 31.7924 69.0827 31.1996 69.0827 29.8912V20.5693C69.0827 19.6289 68.6943 19.3836 67.7743 19.4654V18.8317L70.6363 18.3001C71.2292 18.1979 71.5358 18.4637 71.5358 19.0156V29.8912C71.5358 30.5863 71.8833 30.8725 72.4762 30.6885V31.0565C72.2104 31.588 71.5358 31.7924 70.9225 31.7924Z" fill="var(--fill-0, #164E63)"/>
<path id="Vector_13" d="M61.3578 31.7924C59.9677 31.7924 58.6798 31.1382 58.6798 29.5437C58.6798 27.8878 60.0699 26.8861 64.0563 26.3137C64.6287 26.2319 64.7922 26.0889 64.7922 25.5573V25.2303C64.7922 23.7584 64.322 23.002 63.1568 23.002C60.8263 23.002 62.6049 25.7209 60.4788 25.7209C59.6611 25.7209 59.2727 25.2098 59.2727 24.5556C59.2727 22.9815 61.5009 22.266 63.7497 22.266C66.1619 22.266 67.2454 23.1451 67.2454 25.9866V29.8912C67.2454 30.5863 67.4907 30.8929 68.0835 30.6885V31.0565C67.8178 31.588 67.2249 31.7924 66.5912 31.7924C65.4464 31.7924 64.9149 31.1178 64.8331 30.3818C64.8127 30.1365 64.6491 30.0956 64.4651 30.3205C63.8928 31.036 62.8297 31.7924 61.3578 31.7924ZM61.1943 29.0531C61.1943 29.789 61.6236 30.4227 62.6253 30.4227C63.8723 30.4227 64.7922 29.4619 64.7922 28.174V27.6425C64.7922 27.1723 64.6287 26.9679 63.9745 27.0292C61.7054 27.2336 61.1943 28.2558 61.1943 29.0531Z" fill="var(--fill-0, #164E63)"/>
<path id="Vector_14" d="M54.0431 31.7924C51.4878 31.7924 49.1164 30.1774 49.1164 27.0701C49.1164 23.8606 51.6104 22.266 54.1658 22.266C56.2918 22.266 57.8455 23.37 57.8455 25.0463C57.8455 26.6817 56.394 26.9474 54.1249 27.0905L52.4281 27.1928C52.0602 27.2132 51.8966 27.3972 51.8966 27.8469C51.8966 29.3597 53.4707 30.4023 55.1879 30.4023C55.9852 30.4023 56.9664 30.1774 57.6819 29.3188L58.1726 29.7481C57.7841 30.5045 56.3327 31.7924 54.0431 31.7924ZM51.774 25.7004C51.774 26.3342 51.9579 26.5386 52.4486 26.5181L53.5116 26.4568C55.147 26.3546 55.5559 26.0071 55.5559 25.0667C55.5559 24.0241 55.0652 23.0429 53.8387 23.0429C52.3055 23.0429 51.774 24.5556 51.774 25.7004Z" fill="var(--fill-0, #164E63)"/>
<path id="Vector_15" d="M47.4565 31.7924C46.3935 31.7924 45.6167 31.1996 45.6167 29.8912V26.1911C45.6167 24.7805 44.9216 23.6971 43.6542 23.6971C42.3663 23.6971 41.6303 24.7805 41.6303 26.1911V29.7277C41.6303 30.6681 41.9779 30.9543 42.9182 31.036V31.6698H37.8689V31.036C38.8297 30.9543 39.1772 30.6681 39.1772 29.7277V20.5693C39.1772 19.6289 38.7888 19.3836 37.8689 19.4654V18.8317L40.7309 18.3002C41.3237 18.198 41.6303 18.4637 41.6303 19.0157V22.9407C41.6303 23.6766 41.9574 23.8606 42.2232 23.554C42.6525 23.0429 43.4293 22.2252 45.0443 22.2252C46.5571 22.2252 48.0698 22.9611 48.0698 25.7209V29.8912C48.0698 30.5863 48.4173 30.8725 49.0102 30.6885V31.0565C48.7444 31.588 48.0698 31.7924 47.4565 31.7924Z" fill="var(--fill-0, #164E63)"/>
</g>
</g>
</svg>
